<?xml version="1.0" standalone="no"?>
<!DOCTYPE svg PUBLIC "-//W3C//DTD SVG 20010904//EN"
 "http://www.w3.org/TR/2001/REC-SVG-20010904/DTD/svg10.dtd">
<svg version="1.0" xmlns="http://www.w3.org/2000/svg"
 width="1200.000000pt" height="1103.000000pt" viewBox="0 0 1200.000000 1103.000000"
 preserveAspectRatio="xMidYMid meet">
<metadata>
Created by potrace 1.16, written by Peter Selinger 2001-2019
</metadata>
<g transform="translate(0.000000,1103.000000) scale(0.100000,-0.100000)"
fill="#000000" stroke="none">
<path d="M5928 10693 c-210 -292 -297 -423 -423 -638 -278 -474 -509 -1010
-661 -1535 -25 -85 -48 -158 -52 -161 -4 -3 -56 -23 -117 -44 -1012 -349
-1883 -1111 -2375 -2079 -380 -748 -526 -1639 -404 -2469 l14 -99 -77 -70
c-130 -119 -392 -386 -506 -516 -354 -405 -632 -803 -897 -1286 -118 -215
-344 -687 -333 -696 11 -10 779 -145 993 -174 335 -47 537 -55 880 -36 450 26
871 94 1282 207 l127 35 118 -89 c144 -109 324 -230 457 -307 1229 -710 2740
-766 4015 -150 263 127 510 279 742 455 l117 89 143 -40 c440 -124 861 -193
1349 -221 253 -14 469 -7 800 26 207 20 308 25 538 25 155 0 282 2 282 5 0 12
-225 577 -275 690 -297 671 -728 1302 -1253 1832 l-130 132 9 40 c5 23 18 110
29 193 92 723 5 1421 -260 2088 -377 948 -1109 1743 -2031 2206 -134 67 -353
160 -479 204 -52 18 -99 36 -103 40 -4 4 -36 92 -71 196 -191 562 -437 1088
-773 1650 -110 183 -450 711 -478 742 -8 9 -52 -45 -197 -245z m252 -1088
c111 -197 297 -579 382 -780 79 -188 121 -296 116 -300 -2 -2 -61 4 -133 12
-175 21 -701 21 -875 1 -69 -8 -127 -13 -129 -11 -7 5 116 336 187 503 114
268 356 731 372 713 5 -4 41 -66 80 -138z m335 -1729 c143 -18 358 -55 376
-66 19 -12 75 -312 105 -570 32 -267 23 -709 -22 -1060 -42 -330 -186 -949
-220 -943 -146 24 -734 36 -1113 23 l-144 -5 -19 55 c-10 30 -41 143 -67 250
-174 692 -201 1422 -80 2135 11 66 22 121 23 123 14 13 345 61 531 76 104 8
505 -3 630 -18z m-1870 -298 c-2 -7 -11 -83 -20 -168 -71 -706 -13 -1421 170
-2116 19 -73 35 -136 35 -141 0 -6 -39 -18 -87 -28 -119 -24 -409 -104 -568
-155 -528 -171 -1090 -444 -1545 -749 l-105 -71 -8 72 c-9 92 0 354 19 523 36
326 124 667 246 955 341 805 950 1448 1739 1835 118 58 131 62 124 43z m3240
-146 c319 -181 639 -435 883 -702 418 -458 712 -1020 846 -1620 60 -272 93
-647 79 -898 l-8 -132 -130 90 c-609 427 -1297 743 -2001 920 l-132 33 19 66
c175 597 264 1326 230 1876 -11 177 -33 396 -47 473 l-6 33 93 -47 c52 -25
130 -67 174 -92z m-1488 -2829 l113 -6 -85 -166 c-89 -172 -274 -482 -292
-488 -20 -7 -203 297 -321 534 l-62 122 33 4 c56 7 497 7 614 0z m-1303 -160
c52 -121 223 -454 307 -598 45 -77 130 -214 190 -304 l109 -164 -27 -35 c-50
-66 -386 -396 -503 -495 -371 -312 -755 -565 -1154 -757 -168 -82 -334 -154
-425 -186 l-53 -19 -66 70 c-263 282 -485 613 -644 958 -63 140 -90 208 -143
372 l-42 129 83 63 c645 486 1409 839 2184 1008 158 35 151 37 184 -42z m2291
7 c698 -175 1368 -498 1945 -936 74 -56 153 -118 175 -137 l40 -35 -39 -114
c-113 -333 -291 -669 -511 -963 -109 -146 -309 -375 -327 -375 -19 0 -313 128
-443 193 -571 284 -1109 683 -1526 1131 l-147 158 102 152 c113 165 226 352
331 546 63 115 98 186 176 358 20 43 34 62 47 62 10 0 90 -18 177 -40z m-5255
-1582 c120 -333 375 -781 615 -1081 47 -60 85 -111 82 -113 -7 -7 -239 -52
-377 -73 -330 -49 -774 -73 -1005 -52 -133 12 -357 41 -364 47 -6 5 101 182
214 354 104 157 239 344 349 480 134 168 438 500 456 500 4 0 17 -28 30 -62z
m4340 -363 c429 -403 914 -742 1433 -1000 l187 -94 -92 -56 c-1050 -650 -2403
-710 -3508 -155 -101 51 -271 147 -327 185 l-33 22 233 116 c424 212 808 462
1164 758 155 130 409 367 511 477 l87 95 115 -120 c63 -66 167 -169 230 -228z
m3734 189 c269 -313 509 -665 700 -1026 l66 -126 -97 -9 c-158 -13 -560 -7
-748 11 -279 28 -714 102 -738 126 -5 4 30 57 78 116 190 239 406 596 528 874
35 80 67 153 70 163 4 9 9 17 11 17 3 0 61 -66 130 -146z"/>
</g>
</svg>
